<?xml version="1.0" encoding="UTF-8"?>
<svg width="128" height="128" viewBox="0 0 128 128" xmlns="http://www.w3.org/2000/svg">
  <defs>
    <linearGradient id="g1" x1="0" y1="0" x2="1" y2="1">
      <stop offset="0%" stop-color="#0E7C7B" />
      <stop offset="100%" stop-color="#15a3a2" />
    </linearGradient>
    <linearGradient id="g2" x1="0" y1="1" x2="1" y2="0">
      <stop offset="0%" stop-color="#F4A261" />
      <stop offset="100%" stop-color="#ffb174" />
    </linearGradient>
  </defs>
  <rect x="8" y="8" width="112" height="112" rx="18" ry="18" fill="#ffffff" stroke="#e0e0e0" stroke-width="2"/>
  <g transform="translate(20,20)">
    <rect x="0" y="0" width="88" height="88" rx="8" ry="8" fill="#f3f3f3" />
    <g>
      <rect x="6"  y="6"  width="22" height="22" rx="3" fill="url(#g1)"/>
      <rect x="33" y="6"  width="22" height="22" rx="3" fill="url(#g2)"/>
      <rect x="60" y="6"  width="22" height="22" rx="3" fill="url(#g1)"/>
      <rect x="6"  y="33" width="22" height="22" rx="3" fill="url(#g2)"/>
      <rect x="33" y="33" width="22" height="22" rx="3" fill="url(#g1)"/>
      <rect x="60" y="33" width="22" height="22" rx="3" fill="url(#g2)"/>
      <rect x="6"  y="60" width="22" height="22" rx="3" fill="url(#g1)"/>
      <rect x="33" y="60" width="22" height="22" rx="3" fill="url(#g2)"/>
      <rect x="60" y="60" width="22" height="22" rx="3" fill="url(#g1)"/>
    </g>
  </g>
</svg>